# xmcd CD database file generated by Grip 3.0.0
# 
# Track frame offsets:
#       150
#       10208
#       26609
#       48391
#       58850
#       76073
#       93411
#       112117
#       126950
#       148028
#       162952
#       183532
# 
# Disc length: 2574 seconds
# 
# Revision: 1
# Processed by: cddbd v1.4PL0 Copyright (c) Steve Scherf et al.
# Submitted via: Grip 3.0.0
# 
DISCID=a10a0c0c
DTITLE=Sawdust Symphony - Lowdown, hoedown
DYEAR=2002
DGENRE=Bluegrass
TTITLE0=Lowdown..Hoedown
TTITLE1=It's All The Same
TTITLE2=Midnight MoonLight
TTITLE3=Mister Spaceman
TTITLE4=Going Down The Road
TTITLE5=Long Black Veil
TTITLE6=Rollin' and Tumblin'
TTITLE7=Dark Hollow
TTITLE8=Hobo Song
TTITLE9=Time For A Change
TTITLE10=While Horses
TTITLE11=Once There Was A Time
EXTD=
EXTT0=
EXTT1=
EXTT2=
EXTT3=
EXTT4=
EXTT5=
EXTT6=
EXTT7=
EXTT8=
EXTT9=
EXTT10=
EXTT11=
PLAYORDER=
